<svg width="18" height="18" xmlns="http://www.w3.org/2000/svg">
 <g>
  <title>background</title>
  <rect fill="none" id="canvas_background" height="20" width="20" y="-1" x="-1"/>
 </g>

 <g>
  <title>Layer 1</title>
  <g id="svg_1">
   <path id="svg_2" d="m9,17.5c-4.7,0 -8.5,-3.8 -8.5,-8.5c0,-4.7 3.8,-8.5 8.5,-8.5c4.7,0 8.5,3.8 8.5,8.5c0,4.7 -3.8,8.5 -8.5,8.5z" fill="#002a4a"/>
   <path id="svg_3" d="m9,1c4.4,0 8,3.6 8,8s-3.6,8 -8,8s-8,-3.6 -8,-8s3.6,-8 8,-8m0,-1c-5,0 -9,4 -9,9s4,9 9,9s9,-4 9,-9s-4,-9 -9,-9l0,0z" fill="#002a4a"/>
  </g>
  <g transform="rotate(180 9.564238548278809,9) " id="svg_6">
   <polygon id="svg_4" points="6.235752888023853,9 10.035759277641773,5.099999904632568 8.33575851470232,3.5 2.7357559874653816,9 8.33575851470232,14.5 10.135758705437183,12.899999618530273 " fill="#FFFFFF"/>
   <polygon id="svg_5" points="12.492725677788258,9 16.29272586852312,5.099999904632568 14.592724151909351,3.5 8.992741890251637,9 14.592724151909351,14.5 16.392726249992847,12.899999618530273 " fill="#FFFFFF"/>
  </g>
 </g>
</svg>